<svg xmlns="http://www.w3.org/2000/svg" id="logo" viewBox="0 0 100 100">
  <path fill="#ffffff" d="M14.9 23.7c-5 6.5-3.7 15.8 2.8 20.8s15.8 3.7 20.8-2.8 3.7-15.8-2.8-20.8-15.8-3.7-20.8 2.8zM36 31.2c.2.5 0 1-.5 1.2-3.8 1.5-6.8 4.7-9 9.5-.2.5-.8.7-1.2.5-.5-.2-.7-.8-.5-1.2 2.4-5.3 5.8-8.8 10-10.5.5-.2 1 .1 1.2.5zm-2.1-3.8c.2.6-.1 1.3-.7 1.5-4.4 1.7-8.6 6.1-10.3 10.7-.2.6-.9.9-1.5.7-.6-.2-.9-.9-.7-1.5 2-5.3 6.6-10.1 11.6-12.1.7-.2 1.4.1 1.6.7zm-3.2-2.7c-5.1 2.1-10.1 8.2-11.8 12.7-.3.7-1.1 1.1-1.8.8-.7-.3-1.1-1.1-.8-1.8 1.9-5.1 7.4-11.9 13.3-14.3.7-.3 1.5.1 1.8.8.3.7 0 1.5-.7 1.8zM75.8 60.1c2.9 2.8 12.3 12.8 6.8 16.3-3.3 2-5.5-1.2-6.9-2.7l-.1-.1c-.2-.1-.3-.4-.2-.6.4-1.5-.1-3.2-1.4-4.4L46.1 38.7c-.3-.3-.9-.3-.9.2-.1 1.6-1.6 5.3-3.5 7.3-2 2-4 2.9-7.6 4.1-.4.1-.4.7-.1 1l33.4 24.2c1.2 1 2.7 1.3 4.1 1.1.2 0 .4 0 .5.2.4.5 4.5 4.7 9.1 4.3 3.4-.3 5.8-2.8 6.5-6.1.9-4.1-.9-7.9-3.4-11.1-4.9-6.3-12.5-11.1-12.8-19.9-.4-12.1-16.9-4.3 4.4 16.1z" class="st0"/>
</svg>